<svg width="576" height="161" viewBox="0 0 576 161" fill="none" xmlns="http://www.w3.org/2000/svg">
<g filter="url(#filter0_i_571_2817)">
<path d="M175.713 141.602C141.704 141.602 124.402 121.714 124.402 96.8541C124.402 67.4198 147.87 40.7698 181.878 40.7698C215.887 40.7698 233.189 60.6579 233.189 85.5179C233.189 114.952 209.721 141.602 175.713 141.602ZM177.105 109.98C189.038 109.98 196.595 99.2407 196.595 87.3078C196.595 77.7616 190.43 72.3918 180.486 72.3918C168.553 72.3918 160.996 83.1313 160.996 95.0642C160.996 104.61 167.161 109.98 177.105 109.98Z" fill="black"/>
<path d="M269.415 139.216H233.617L262.852 6.5624H298.65L269.415 139.216Z" fill="black"/>
<path fill-rule="evenodd" clip-rule="evenodd" d="M70.1665 141.602C59.2281 141.602 48.4886 137.625 42.3233 129.073L40.1487 139.159L0 160.488L4.33423 139.159L33.5725 6.5624H69.371L59.0292 53.2993C67.3822 44.1508 75.1385 40.7698 85.0825 40.7698C106.562 40.7698 120.881 54.8903 120.881 80.7448C120.881 107.395 104.374 141.602 70.1665 141.602ZM83.8893 88.3022C83.8893 100.633 75.1385 109.98 63.8023 109.98C57.4382 109.98 51.6706 107.594 47.8919 103.417L53.4606 78.9549C57.637 74.7784 62.4102 72.3918 67.9788 72.3918C76.5307 72.3918 83.8893 78.756 83.8893 88.3022Z" fill="black"/>
<path d="M335.896 141.602C315.212 141.602 300.495 134.045 300.495 117.339C300.495 115.947 300.694 112.566 301.29 109.781L309.047 74.1817H293.136L300.097 43.1564H316.007L321.775 16.9042L361.851 0.349121L357.574 16.9447L351.806 43.1564H371.296L364.335 74.1817H344.845L339.674 97.6496C339.276 99.4395 339.078 101.428 339.078 102.224C339.078 106.798 341.862 109.98 348.027 109.98C349.817 109.98 352.403 109.384 352.999 108.986V137.625C349.22 140.21 342.459 141.602 335.896 141.602Z" fill="black"/>
</g>
<path d="M380.019 143.756C375.163 143.756 371.296 139.709 371.296 134.854C371.296 129.189 376.152 124.423 381.817 124.423C386.673 124.423 390.539 128.469 390.539 133.325C390.539 138.99 385.684 143.756 380.019 143.756Z" fill="black"/>
<path d="M441.003 142.587H424.817L429.853 119.747C430.033 118.938 430.392 117.499 430.392 116.42C430.392 113.453 427.785 112.373 425.177 112.373C421.67 112.373 419.242 114.172 417.534 115.701L411.599 142.587H395.413L405.035 99.1552H421.22L420.051 104.101C423.199 101.223 427.155 98.0762 433.719 98.0762C442.801 98.0762 448.017 103.022 448.017 109.496C448.017 110.215 447.747 112.194 447.567 113.003L441.003 142.587Z" fill="black"/>
<path d="M474.581 143.666C460.553 143.666 450.842 136.652 450.842 123.883C450.842 110.036 461.453 98.0762 476.649 98.0762C487.44 98.0762 496.971 104.64 496.971 117.859C496.971 120.826 496.432 124.243 495.982 125.862H466.848V125.951C466.848 126.581 469.456 131.347 475.75 131.347C479.167 131.347 483.213 130.537 485.192 129.189L490.137 139.709C485.731 142.497 479.796 143.666 474.581 143.666ZM468.377 115.611H482.674V115.341C482.674 114.082 481.145 110.395 476.02 110.395C471.704 110.395 468.916 113.722 468.377 115.611Z" fill="black"/>
<path d="M553.438 142.587H535.814L534.015 118.308L521.696 142.587H504.072L501.105 99.1552H517.29L517.74 123.074L530.688 99.1552H545.166L547.414 123.074L558.474 99.1552H575.649L553.438 142.587Z" fill="black"/>
<defs>
<filter id="filter0_i_571_2817" x="0" y="0.349121" width="371.296" height="160.138" filterUnits="userSpaceOnUse" color-interpolation-filters="sRGB">
<feFlood flood-opacity="0" result="BackgroundImageFix"/>
<feBlend mode="normal" in="SourceGraphic" in2="BackgroundImageFix" result="shape"/>
<feColorMatrix in="SourceAlpha" type="matrix" values="0 0 0 0 0 0 0 0 0 0 0 0 0 0 0 0 0 0 127 0" result="hardAlpha"/>
<feOffset/>
<feGaussianBlur stdDeviation="0.228117"/>
<feComposite in2="hardAlpha" operator="arithmetic" k2="-1" k3="1"/>
<feColorMatrix type="matrix" values="0 0 0 0 1 0 0 0 0 1 0 0 0 0 1 0 0 0 0.95 0"/>
<feBlend mode="normal" in2="shape" result="effect1_innerShadow_571_2817"/>
</filter>
</defs>
</svg>
