<?xml version="1.0" encoding="UTF-8" standalone="no"?>
<!DOCTYPE svg PUBLIC "-//W3C//DTD SVG 1.1//EN" "http://www.w3.org/Graphics/SVG/1.1/DTD/svg11.dtd">
<svg width="100%" height="100%" viewBox="0 0 1447 250" version="1.1" xmlns="http://www.w3.org/2000/svg" xmlns:xlink="http://www.w3.org/1999/xlink" xml:space="preserve" xmlns:serif="http://www.serif.com/" style="fill-rule:evenodd;clip-rule:evenodd;stroke-linejoin:round;stroke-miterlimit:2;">
    <g transform="matrix(1.302083,0,0,1.302083,0,0)">
        <path d="M47.2,14.4C32.8,22.6 21.2,34 12.8,48C4.3,62.1 0,77.7 0,94.3C0,110.9 4.3,126.5 12.7,140.6C21.2,154.7 32.7,166 47.1,174.2C61.5,182.4 77.5,186.6 94.8,186.6L164.6,186.6L164.6,74.1L83.6,74.1L83.6,113.2L121.8,113.2L121.8,145L96.2,145C87.1,145 78.6,142.7 71,138.1C63.4,133.5 57.2,127.3 52.7,119.7C48.2,112 46,103.5 46,94.4C46,85.3 48.3,76.7 52.7,69.1C57.2,61.4 63.3,55.2 71,50.7C78.6,46.1 87.1,43.8 96.2,43.8L164.7,43.8L164.7,2L94.9,2C77.6,2 61.6,6.2 47.2,14.4Z" style="fill:rgb(0,34,83);fill-rule:nonzero;"/>
    </g>
    <g transform="matrix(1.302083,0,0,1.302083,0,0)">
        <path d="M267.6,0.2C224.9,0.2 190.2,35 190.2,77.8L190.2,186.6L232.2,186.6L232.2,132L303,132L303,186.6L345,186.6L345,77.8C345,35 310.3,0.2 267.6,0.2ZM303,93L232.2,93L232.2,77.7C232.2,58.1 248.1,42.2 267.6,42.2C287.1,42.2 303,58.1 303,77.7L303,93Z" style="fill:rgb(0,34,83);fill-rule:nonzero;"/>
    </g>
    <g transform="matrix(1.302083,0,0,1.302083,0,0)">
        <path d="M576.4,0C544.3,0 518.2,26.2 518.2,58.4L518.2,132.6C518.2,141.3 511.2,148.3 502.5,148.3C493.8,148.3 486.8,141.3 486.8,132.6L486.8,58.5C486.8,26.3 460.7,0.1 428.6,0.1C396.5,0.1 370.4,26.3 370.4,58.5L370.4,186.7L413,186.7L413,58.5C413,49.8 420,42.8 428.7,42.8C437.4,42.8 444.4,49.8 444.4,58.5L444.4,132.6C444.4,164.8 470.5,191 502.6,191C534.7,191 560.8,164.8 560.8,132.6L560.8,58.4C560.8,49.7 567.8,42.7 576.5,42.7C585.2,42.7 592.2,49.7 592.2,58.4L592.2,186.7L634.8,186.7L634.8,58.4C634.8,26.2 608.7,0 576.6,0L576.4,0Z" style="fill:rgb(0,34,83);fill-rule:nonzero;"/>
    </g>
    <g transform="matrix(1.302083,0,0,1.302083,0,0)">
        <path d="M1033.1,0.3C990.4,0.3 955.7,35.1 955.7,77.9L955.7,186.7L997.7,186.7L997.7,132.1L1068.5,132.1L1068.5,186.7L1110.5,186.7L1110.5,77.9C1110.5,35.1 1075.8,0.3 1033.1,0.3ZM1068.5,93.2L997.7,93.2L997.7,77.9C997.7,58.3 1013.6,42.4 1033.1,42.4C1052.6,42.4 1068.5,58.3 1068.5,77.9L1068.5,93.2Z" style="fill:rgb(0,34,83);fill-rule:nonzero;"/>
    </g>
    <g transform="matrix(1.302083,0,0,1.302083,0,0)">
        <path d="M872,0C839.9,0 813.8,26.2 813.8,58.4L813.8,132.6C813.8,141.3 806.8,148.3 798.1,148.3C789.4,148.3 782.4,141.3 782.4,132.6L782.4,58.4C782.4,26.2 756.3,0 724.2,0C692.1,0 666,26.2 666,58.4L666,186.7L708.6,186.7L708.6,58.4C708.6,49.7 715.6,42.7 724.3,42.7C733,42.7 740,49.7 740,58.4L740,132.6C740,164.8 766.1,191 798.2,191C830.3,191 856.4,164.8 856.4,132.6L856.4,58.4C856.4,49.7 863.4,42.7 872.1,42.7C880.8,42.7 887.8,49.7 887.8,58.4L887.8,186.7L930.4,186.7L930.4,58.4C930.4,26.2 904.3,0 872.2,0L872,0Z" style="fill:rgb(0,34,83);fill-rule:nonzero;"/>
    </g>
</svg>
