<?xml version="1.0" encoding="UTF-8"?><svg id="Layer_1" xmlns="http://www.w3.org/2000/svg" xmlns:xlink="http://www.w3.org/1999/xlink" viewBox="0 0 139 38"><defs><style>.cls-1{fill:none;}.cls-2{fill:#7559ff;}.cls-3{clip-path:url(#clippath-1);}.cls-4{clip-path:url(#clippath);}</style><clipPath id="clippath"><rect class="cls-1" width="139" height="38"/></clipPath><clipPath id="clippath-1"><rect class="cls-1" width="139" height="38"/></clipPath></defs><g class="cls-4"><g class="cls-3"><path d="M97.48,16.69h-12.31l2.43-4.2h9.89s0,4.2,0,4.2h0ZM93.08,16.69c-.92,4.73-4.88,8.29-9.61,8.29-5.92,0-10.7-4.97-10.38-10.96.29-5.36,4.76-9.7,10.13-9.83,1.57-.04,3.07.28,4.42.87l2.05-3.54c-2.67-1.38-5.81-1.91-9.11-1.21-6.39,1.34-11.23,6.8-11.65,13.32-.54,8.49,6.18,15.55,14.55,15.55,5.35,0,10.01-3.11,12.37-7.69l-2.76-4.79Z"/><path d="M134.01,28.57v-10.3c0-3.09-1.87-4.95-4.3-4.95-1.1,0-2.29.28-3.29.93l2.69-4.67c.52-.11,1.03-.16,1.48-.16,4.79,0,7.64,3.21,7.6,8.61v10.54h-4.18ZM120.43,11.84v16.74h4.17V9.43l-4.17,2.41Z"/><path d="M4.17.59H0v27.98h4.17V.59ZM24.08.59h-4.17v27.98h4.17V.59Z"/><path class="cls-2" d="M17.8,13.69l-9.76-5.63c-.68-.4-1.54.1-1.54.89v11.27c0,.79.85,1.29,1.54.89l9.76-5.63c.68-.4.68-1.38,0-1.78h0Z"/><path d="M56.76,20.98l2.42,4.2-7.4,12.82h-4.85l7.4-12.82-8.75-15.16h4.85l6.33,10.96ZM67.94,10.02h-4.85l-6.33,10.96h4.85l6.33-10.96Z"/><path d="M33.94,28.81c3.17.85,6.17.14,8.46-1.5l-1.97-3.41c-1.03.85-2.35,1.36-3.78,1.36-2.64,0-4.87-1.72-5.66-4.1h15.35c.12-.6.18-1.23.18-1.86,0-5.45-4.42-9.87-9.87-9.87-2.8,0-5.33,1.17-7.12,3.05l2.1,3.63c1.06-1.66,2.91-2.77,5.03-2.77,2.64,0,4.87,1.71,5.66,4.09h-15.34c-.44,2.29-.16,4.85,1.69,7.54,1.27,1.85,3.13,3.26,5.3,3.84Z"/><path d="M105.78,28.81c3.17.85,6.18.14,8.46-1.5l-1.97-3.41c-1.03.85-2.35,1.36-3.78,1.36-2.64,0-4.87-1.72-5.66-4.1h15.35c.12-.6.18-1.23.18-1.86,0-5.45-4.42-9.87-9.87-9.87-2.8,0-5.33,1.17-7.12,3.05l2.1,3.63c1.06-1.66,2.91-2.77,5.03-2.77,2.64,0,4.87,1.71,5.65,4.09h-15.34c-.44,2.29-.16,4.85,1.69,7.54,1.27,1.85,3.13,3.26,5.3,3.84Z"/></g></g></svg>